<svg xmlns="http://www.w3.org/2000/svg" width="27" height="34" viewBox="0 0 27 34">
    <g fill="#9FA3A7" fill-rule="nonzero" stroke="#9FA3A7" stroke-width=".5">
        <path d="M25.629 7.464L13.59 1.07a.6.6 0 0 0-.57.004L1.316 7.467a.597.597 0 0 0-.311.524v8.351a17.29 17.29 0 0 0 10.398 15.826l1.625.706a.6.6 0 0 0 .477 0l1.83-.787c6.429-2.691 10.61-8.962 10.611-15.91V7.99a.597.597 0 0 0-.317-.527zm-.881 8.713a16.065 16.065 0 0 1-9.881 14.81l-.004.003-1.595.686-1.385-.603a16.094 16.094 0 0 1-9.68-14.73V8.344l11.11-6.069 11.435 6.073v7.828z"/>
        <path d="M8.891 15.955a.6.6 0 0 0-.845-.066.596.596 0 0 0-.067.842l3.166 3.695a.6.6 0 0 0 .834.075l7.373-5.978a.596.596 0 0 0 .087-.84.6.6 0 0 0-.843-.087l-6.92 5.61-2.785-3.251z"/>
    </g>
</svg>
