<svg xmlns="http://www.w3.org/2000/svg" width="21" height="20" viewBox="0 0 21 20">
    <defs>
        <filter id="a" width="104.6%" height="103.2%" x="-2.3%" y="-1.6%" filterUnits="objectBoundingBox">
            <feColorMatrix in="shadowBlurOuter1" result="shadowMatrixOuter1" values="0 0 0 0 0 0 0 0 0 0 0 0 0 0 0 0 0 0 0.16 0"/>
            <feMerge>
                <feMergeNode in="shadowMatrixOuter1"/>
                <feMergeNode in="SourceGraphic"/>
            </feMerge>
        </filter>
    </defs>
    <path fill="#8C8FA6" fill-rule="evenodd" d="M19.917 32c-.229 0-.452-.07-.638-.204a1.06 1.06 0 0 1-.407-1.137l1.236-4.525-3.706-2.945a1.055 1.055 0 0 1-.35-1.157c.142-.423.528-.715.972-.735l4.764-.243 1.702-4.372a1.086 1.086 0 0 1 2.015 0l1.708 4.372 4.763.243c.444.02.83.312.972.735.137.42-.002.883-.35 1.157l-3.699 2.94 1.237 4.525c.116.428-.047.882-.407 1.138a1.093 1.093 0 0 1-1.222.032l-4.002-2.56-4.002 2.56a1.084 1.084 0 0 1-.586.176zm4.588-5.06c.208-.001.412.059.587.17l2.227 1.423-.687-2.51a1.056 1.056 0 0 1 .364-1.106l2.055-1.632-2.643-.136a1.078 1.078 0 0 1-.951-.68l-.958-2.439-.95 2.439a1.079 1.079 0 0 1-.958.681l-2.643.136 2.055 1.632c.332.262.476.698.365 1.106l-.687 2.516 2.226-1.423c.178-.116.385-.178.598-.178z" filter="url(#a)" transform="translate(-14 -15)"/>
</svg>
